<svg xmlns="http://www.w3.org/2000/svg" id="mermaid-1587642028135" width="100%" height="100%" viewBox="-134.313 -10 759.313 496" style="max-width:759.3125px"><style>#mermaid-1587642028135 .actor{stroke:#ccf;fill:#ececff}#mermaid-1587642028135 text.actor{fill:#000;stroke:none}#mermaid-1587642028135 .actor-line{stroke:gray}#mermaid-1587642028135 .messageLine0,#mermaid-1587642028135 .messageLine1{stroke-width:1.5;stroke-dasharray:&apos;2 2&apos;;stroke:#333}#mermaid-1587642028135 #arrowhead,#mermaid-1587642028135 #sequencenumber{fill:#333}#mermaid-1587642028135 #crosshead path{fill:#333!important;stroke:#333!important}#mermaid-1587642028135 .messageText{fill:#333;stroke:none}:root{--mermaid-font-family:&apos;&quot;trebuchet ms&quot;, verdana, arial&apos;;--mermaid-font-family:&quot;Comic Sans MS&quot;, &quot;Comic Sans&quot;, cursive;--mermaid-font-family:&quot;trebuchet ms&quot;, verdana, arial}</style><style>#mermaid-1587642028135{color:#000;font:16px &quot;trebuchet ms&quot;,verdana,arial}</style><g><line id="actor638" x1="75" x2="75" y1="5" y2="485" stroke="#999" stroke-width=".5" class="actor-line"/><rect width="150" height="65" x="0" y="0" fill="#eaeaea" stroke="#666" class="actor" rx="3" ry="3"/><text x="75" y="32.5" alignment-baseline="central" class="actor" dominant-baseline="central" style="text-anchor:middle;font-size:14px"><tspan x="75" dy="0">QtApplication</tspan></text></g><g><line id="actor639" x1="275" x2="275" y1="5" y2="485" stroke="#999" stroke-width=".5" class="actor-line"/><rect width="150" height="65" x="200" y="0" fill="#eaeaea" stroke="#666" class="actor" rx="3" ry="3"/><text x="275" y="32.5" alignment-baseline="central" class="actor" dominant-baseline="central" style="text-anchor:middle;font-size:14px"><tspan x="275" dy="0">Bundler</tspan></text></g><g><line id="actor640" x1="475" x2="475" y1="5" y2="485" stroke="#999" stroke-width=".5" class="actor-line"/><rect width="150" height="65" x="400" y="0" fill="#eaeaea" stroke="#666" class="actor" rx="3" ry="3"/><text x="475" y="32.5" alignment-baseline="central" class="actor" dominant-baseline="central" style="text-anchor:middle;font-size:14px"><tspan x="475" dy="0">jsexecutor.js</tspan></text></g><defs><marker id="arrowhead" markerHeight="4" markerWidth="6" orient="auto" refX="5" refY="2"><path d="M 0,0 V 4 L6,2 Z"/></marker></defs><defs><marker id="crosshead" markerHeight="8" markerWidth="15" orient="auto" refX="16" refY="4"><path fill="#000" stroke="#000" stroke-width="1" d="M 9,2 V 6 L16,4 Z" style="stroke-dasharray:0,0"/><path fill="none" stroke="#000" stroke-width="1" d="M 0,1 L 6,7 M 6,1 L 0,7" style="stroke-dasharray:0,0"/></marker></defs><defs><marker id="sequencenumber" markerHeight="40" markerWidth="60" orient="auto" refX="15" refY="15"><circle cx="15" cy="15" r="6"/></marker></defs><g><text x="175" y="93" class="messageText" style="text-anchor:middle">requiest js sources</text><line x1="75" x2="275" y1="100" y2="100" stroke="#000" stroke-width="2" marker-end="url(#arrowhead)" class="messageLine0" style="fill:none"/></g><g><text x="275" y="128" class="messageText" style="text-anchor:middle">Generates single js file from all js sources</text><path stroke="#000" stroke-width="2" marker-end="url(#arrowhead)" d="M 275,135 C 335,125 335,165 275,155" class="messageLine1" style="stroke-dasharray:3,3;fill:none"/></g><g><text x="175" y="193" class="messageText" style="text-anchor:middle">returns js file</text><line x1="275" x2="75" y1="200" y2="200" stroke="#000" stroke-width="2" marker-end="url(#arrowhead)" class="messageLine1" style="stroke-dasharray:3,3;fill:none"/></g><g><text x="275" y="228" class="messageText" style="text-anchor:middle">sends js for execution</text><line x1="75" x2="475" y1="235" y2="235" stroke="#000" stroke-width="2" marker-end="url(#arrowhead)" class="messageLine0" style="fill:none"/></g><g><text x="475" y="263" class="messageText" style="text-anchor:middle">executes js in a sandbox</text><path stroke="#000" stroke-width="2" marker-end="url(#arrowhead)" d="M 475,270 C 535,260 535,300 475,290" class="messageLine1" style="stroke-dasharray:3,3;fill:none"/></g><g><text x="275" y="328" class="messageText" style="text-anchor:middle">send JSON response (result of code execution)</text><line x1="475" x2="75" y1="335" y2="335" stroke="#000" stroke-width="2" marker-end="url(#arrowhead)" class="messageLine0" style="fill:none"/></g><g><text x="75" y="363" class="messageText" style="text-anchor:middle">process JSON and instantiate UI components</text><path stroke="#000" stroke-width="2" marker-end="url(#arrowhead)" d="M 75,370 C 135,360 135,400 75,390" class="messageLine1" style="stroke-dasharray:3,3;fill:none"/></g><g><rect width="150" height="65" x="0" y="420" fill="#eaeaea" stroke="#666" class="actor" rx="3" ry="3"/><text x="75" y="452.5" alignment-baseline="central" class="actor" dominant-baseline="central" style="text-anchor:middle;font-size:14px"><tspan x="75" dy="0">QtApplication</tspan></text></g><g><rect width="150" height="65" x="200" y="420" fill="#eaeaea" stroke="#666" class="actor" rx="3" ry="3"/><text x="275" y="452.5" alignment-baseline="central" class="actor" dominant-baseline="central" style="text-anchor:middle;font-size:14px"><tspan x="275" dy="0">Bundler</tspan></text></g><g><rect width="150" height="65" x="400" y="420" fill="#eaeaea" stroke="#666" class="actor" rx="3" ry="3"/><text x="475" y="452.5" alignment-baseline="central" class="actor" dominant-baseline="central" style="text-anchor:middle;font-size:14px"><tspan x="475" dy="0">jsexecutor.js</tspan></text></g></svg>